<?xml version="1.0" encoding="UTF-8"?>
<!DOCTYPE svg PUBLIC "-//W3C//DTD SVG 1.1//EN" "http://www.w3.org/Graphics/SVG/1.1/DTD/svg11.dtd">
<!-- Creator: CorelDRAW 2021 (64-Bit) -->
<svg xmlns="http://www.w3.org/2000/svg" xml:space="preserve" width="210mm" height="70mm" version="1.1" style="shape-rendering:geometricPrecision; text-rendering:geometricPrecision; image-rendering:optimizeQuality; fill-rule:evenodd; clip-rule:evenodd"
viewBox="0 0 21000 7000"
 xmlns:xlink="http://www.w3.org/1999/xlink"
 xmlns:xodm="http://www.corel.com/coreldraw/odm/2003">
 <defs>
  <style type="text/css">
   <![CDATA[
    .fil1 {fill:#2B2A29}
    .fil0 {fill:#2B2A29;fill-rule:nonzero}
   ]]>
  </style>
 </defs>
 <g id="Слой_x0020_1">
  <metadata id="CorelCorpID_0Corel-Layer"/>
  <g id="_2591067755184">
   <path class="fil0" d="M8871.07 4307.9c-293.51,0 -599.59,-131 -604.96,-457.4l-674.2 0c0,644.81 644.95,986.16 1273.93,986.16 506.86,0 1237.09,-231.76 1237.09,-948.08 0,-505.43 -338.09,-691.62 -821.92,-809.24 -423.7,-102.98 -936.24,-87.15 -936.24,-359.79 0,-221.3 239.4,-302.38 477.42,-302.38 267.41,0 538.33,113.24 538.33,405.21l665.67 0c-57.76,-668.83 -599.39,-923.71 -1191.82,-923.71 -581.82,0 -1167.65,254.04 -1167.65,929.97 0,479.34 414.09,685.35 848.01,760.52 652.99,113.24 855.7,139.38 855.7,387.46 0,263.41 -372.51,331.28 -499.36,331.28z"/>
   <path class="fil0" d="M19324.21 3220.98c-22.98,337.01 -215.58,686.04 -673.86,686.04 -386.62,0 -635.09,-374.58 -613.14,-748.82 20.17,-348.2 204.58,-710.41 641.99,-710.41 425.09,0 673.52,357.18 645.01,773.19zm19.83 -1317.09l0 299.97c0,0 -178.89,-373.06 -851.51,-373.06 -725.35,0 -1183.48,637.66 -1183.48,1338 0,742.07 395.5,1329.82 1207.15,1329.82 609.99,0 801.75,-321.57 801.75,-321.57l6.26 287.98c-23.67,383.12 -224.11,587.55 -607.92,587.55 -282.9,0 -461.43,-91.34 -500.59,-313.38l-792.87 43.5c28.71,544.44 650.38,866.65 1215.49,866.65 1273.09,0 1424.45,-670.55 1424.45,-1215.83l0 -2529.63 -718.73 0z"/>
   <path class="fil0" d="M13529.52 3192.67l0 1507.32 748.18 0 0 -1802.89c0,-705.72 -402.45,-974.37 -964.25,-974.37 -367.83,0 -643.77,215.78 -796.91,452.91 -143.17,-326.4 -439.49,-452.91 -771.61,-452.91 -342.23,0 -617.83,163.4 -806.97,442.45l-10.11 0 0 -368.66 -708.63 0 0 2703.47 748.14 0 0 -1560.73c0,-469.38 324.67,-578.33 467.84,-578.33 407.34,0 439,331.09 439,631.05l0 1508.01 748.48 0 0 -1559.5c0,-470.61 269.68,-588.24 462.32,-588.24 430.42,0 444.52,335.63 444.52,640.42z"/>
   <path class="fil0" d="M15175.13 2983.61c0,-100.37 130.65,-544.4 596.62,-544.4 444.37,0 596.77,417.89 596.77,544.4l-1193.39 0zm590.36 -1130.57c-862.51,0 -1374.55,699.26 -1374.55,1461.85 0,777.38 527.92,1439.4 1403.6,1439.4 628.63,0 1110.58,-255.38 1325.62,-897.77l-771.12 -34.42c-19.33,100.21 -222.04,336.11 -540.05,336.11 -424.55,0 -653.54,-327.29 -653.54,-645.5l1999.52 0c56.53,-810.28 -405.26,-1659.67 -1389.48,-1659.67z"/>
   <circle class="fil1" cx="6598.31" cy="2960.51" r="886.24"/>
   <circle class="fil1" cx="4826.57" cy="2960.51" r="886.24"/>
   <circle class="fil1" cx="3054.28" cy="2960.51" r="886.24"/>
   <circle class="fil1" cx="4825.75" cy="4732.4" r="886.24"/>
   <circle class="fil1" cx="3054" cy="4732.4" r="886.24"/>
   <circle class="fil1" cx="1281.72" cy="4732.4" r="886.24"/>
  </g>
 </g>
</svg>
