<?xml version="1.0" encoding="UTF-8"?>
<!DOCTYPE svg PUBLIC "-//W3C//DTD SVG 1.1//EN" "http://www.w3.org/Graphics/SVG/1.1/DTD/svg11.dtd">
<!-- Creator: CorelDRAW 2021 (64-Bit) -->
<svg xmlns="http://www.w3.org/2000/svg" xml:space="preserve" width="210mm" height="60mm" version="1.1" style="shape-rendering:geometricPrecision; text-rendering:geometricPrecision; image-rendering:optimizeQuality; fill-rule:evenodd; clip-rule:evenodd"
viewBox="0 0 21000 6000"
 xmlns:xlink="http://www.w3.org/1999/xlink"
 xmlns:xodm="http://www.corel.com/coreldraw/odm/2003">
 <defs>
  <style type="text/css">
   <![CDATA[
    .fil1 {fill:#2B2A29}
    .fil0 {fill:#2B2A29;fill-rule:nonzero}
   ]]>
  </style>
 </defs>
 <g id="Слой_x0020_1">
  <metadata id="CorelCorpID_0Corel-Layer"/>
  <g id="_2224326926016">
   <path class="fil0" d="M9383.11 3686.34c-258.07,0 -527.2,-115.18 -531.93,-402.18l-592.81 0c0,566.97 567.1,867.1 1120.14,867.1 445.67,0 1087.74,-203.77 1087.74,-833.62 0,-444.41 -297.27,-608.12 -722.69,-711.55 -372.55,-90.54 -823.21,-76.62 -823.21,-316.35 0,-194.58 210.5,-265.88 419.78,-265.88 235.13,0 473.34,99.57 473.34,356.3l585.31 0c-50.79,-588.09 -527.03,-812.2 -1047.94,-812.2 -511.58,0 -1026.68,223.38 -1026.68,817.71 0,421.47 364.1,602.61 745.63,668.7 574.16,99.57 752.39,122.55 752.39,340.68 0,231.62 -327.54,291.29 -439.07,291.29z"/>
   <path class="fil0" d="M18574.3 2730.64c-20.21,296.32 -189.55,603.22 -592.5,603.22 -339.95,0 -558.42,-329.36 -539.13,-658.42 17.74,-306.17 179.89,-624.65 564.5,-624.65 373.77,0 592.2,314.06 567.13,679.85zm17.44 -1158.08l0 263.75c0,0 -157.29,-328.02 -748.71,-328.02 -637.78,0 -1040.61,560.67 -1040.61,1176.47 0,652.48 347.75,1169.27 1061.42,1169.27 536.35,0 704.96,-282.74 704.96,-282.74l5.5 253.21c-20.81,336.87 -197.05,516.62 -534.52,516.62 -248.75,0 -405.73,-80.31 -440.17,-275.55l-697.14 38.25c25.24,478.72 571.86,762.03 1068.75,762.03 1119.4,0 1252.49,-589.61 1252.49,-1069.06l0 -2224.23 -631.97 0z"/>
   <path class="fil0" d="M13479.17 2705.75l0 1325.35 657.86 0 0 -1585.24c0,-620.52 -353.86,-856.74 -847.84,-856.74 -323.42,0 -566.05,189.73 -700.7,398.23 -125.89,-286.99 -386.44,-398.23 -678.46,-398.23 -300.92,0 -543.24,143.67 -709.55,389.04l-8.89 0 0 -324.16 -623.08 0 0 2377.1 657.81 0 0 -1372.32c0,-412.71 285.48,-508.5 411.37,-508.5 358.16,0 386,291.11 386,554.86l0 1325.96 658.12 0 0 -1371.23c0,-413.8 237.12,-517.23 406.51,-517.23 378.45,0 390.85,295.11 390.85,563.11z"/>
   <path class="fil0" d="M14926.12 2521.92c0,-88.25 114.87,-478.67 524.59,-478.67 390.73,0 524.73,367.44 524.73,478.67l-1049.32 0zm519.08 -994.07c-758.38,0 -1208.6,614.84 -1208.6,1285.36 0,683.53 464.19,1265.63 1234.15,1265.63 552.74,0 976.51,-224.55 1165.58,-789.39l-678.02 -30.27c-17,88.12 -195.23,295.54 -474.86,295.54 -373.29,0 -574.64,-287.77 -574.64,-567.57l1758.14 0c49.69,-712.46 -356.34,-1459.3 -1221.75,-1459.3z"/>
   <circle class="fil1" cx="7384.73" cy="2501.61" r="779.25"/>
   <circle class="fil1" cx="5826.88" cy="2501.61" r="779.25"/>
   <circle class="fil1" cx="4268.55" cy="2501.61" r="779.25"/>
   <circle class="fil1" cx="5826.16" cy="4059.59" r="779.25"/>
   <circle class="fil1" cx="4268.31" cy="4059.59" r="779.25"/>
   <circle class="fil1" cx="2709.98" cy="4059.59" r="779.25"/>
  </g>
 </g>
</svg>
